<?xml version="1.0" standalone="no"?>
<!DOCTYPE svg PUBLIC "-//W3C//DTD SVG 20010904//EN"
 "http://www.w3.org/TR/2001/REC-SVG-20010904/DTD/svg10.dtd">
<svg version="1.0" xmlns="http://www.w3.org/2000/svg"
 width="700.000000pt" height="700.000000pt" viewBox="0 0 700.000000 700.000000"
 preserveAspectRatio="xMidYMid meet">
<metadata>
Created by potrace 1.11, written by Peter Selinger 2001-2013
</metadata>
<g transform="translate(0.000000,700.000000) scale(0.100000,-0.100000)"
fill="#000000" stroke="none">
<path d="M3377 6834 c-1 -1 -51 -4 -112 -8 -60 -3 -119 -8 -130 -10 -11 -2
-47 -7 -80 -10 -33 -4 -72 -9 -87 -12 -16 -2 -43 -6 -60 -9 -38 -6 -149 -32
-228 -52 -30 -8 -62 -16 -71 -18 -108 -24 -375 -124 -535 -200 -365 -174 -641
-370 -934 -664 -342 -344 -580 -707 -753 -1151 -60 -153 -138 -419 -153 -518
-3 -20 -7 -45 -10 -54 -3 -10 -7 -30 -10 -45 -2 -16 -6 -39 -9 -53 -3 -14 -7
-47 -11 -75 -3 -27 -7 -61 -10 -75 -17 -105 -23 -440 -11 -620 45 -671 296
-1305 736 -1860 99 -125 360 -386 486 -486 253 -202 516 -363 770 -471 44 -19
91 -39 105 -45 16 -7 57 -60 112 -147 48 -75 93 -144 101 -155 13 -17 18 -16
118 24 57 23 118 48 134 55 64 29 133 54 137 50 4 -5 124 -24 188 -31 25 -3
55 -7 66 -9 80 -17 465 -24 625 -12 304 23 614 91 909 200 455 168 882 446
1220 794 95 97 133 139 227 253 130 156 290 411 398 635 139 286 256 658 289
919 2 11 6 44 10 71 4 28 9 64 12 80 22 160 22 611 0 745 -5 28 -14 94 -21
155 -8 63 -44 231 -71 335 -70 261 -182 535 -317 775 l-62 110 -1 565 c-1 311
-2 568 -3 571 -1 4 -16 5 -33 4 -18 -2 -89 -6 -158 -10 -69 -4 -141 -8 -160
-10 -38 -4 -157 -12 -290 -20 -47 -3 -110 -8 -140 -10 -30 -2 -100 -7 -155
-11 -55 -3 -102 -8 -103 -9 -2 -2 -34 15 -70 37 -274 167 -691 338 -961 394
-12 3 -51 11 -85 19 -96 22 -298 51 -426 61 -70 6 -378 12 -383 8z m118 -596
c-1 -268 -3 -489 -5 -491 -3 -2 -59 -7 -125 -11 -66 -3 -129 -8 -140 -10 -11
-2 -40 -7 -65 -10 -52 -7 -75 -11 -148 -28 l-54 -12 -49 53 c-28 28 -53 50
-57 47 -4 -2 -36 -7 -72 -10 -36 -4 -78 -8 -95 -10 -16 -2 -61 -7 -100 -10
-38 -4 -83 -9 -100 -11 -40 -6 -106 -13 -180 -20 -33 -3 -78 -8 -100 -10 -50
-6 -124 -14 -190 -20 -27 -3 -66 -8 -85 -10 -19 -3 -60 -7 -90 -10 -30 -3 -77
-8 -105 -11 -27 -3 -66 -8 -85 -9 -19 -2 -64 -7 -100 -10 -120 -12 -193 -24
-199 -34 -3 -5 -6 -317 -6 -694 0 -535 3 -688 13 -700 9 -10 10 -22 3 -38 -48
-114 -97 -405 -100 -592 l-1 -69 -492 4 -493 3 1 70 c9 550 180 1129 477 1606
435 700 1116 1210 1901 1423 102 28 315 72 391 81 28 3 64 8 80 10 17 2 66 7
110 10 44 4 81 8 82 8 1 1 41 2 90 2 l88 0 0 -487z m264 478 c57 -4 107 -8
110 -10 3 -2 33 -6 66 -10 33 -3 71 -8 85 -11 14 -3 52 -10 85 -16 190 -34
412 -99 599 -176 122 -49 374 -171 382 -184 3 -5 -7 -9 -23 -10 -27 0 -76 -3
-213 -14 -36 -3 -112 -8 -170 -11 -58 -4 -116 -8 -130 -9 -14 -2 -46 -3 -72
-4 l-46 -1 -202 -285 c-112 -157 -205 -287 -209 -289 -3 -2 -46 5 -96 15 -49
10 -121 21 -160 24 -84 7 -135 14 -144 19 -5 3 -7 975 -2 983 0 1 9 0 19 -2 9
-1 64 -6 121 -9z m1581 -1033 c0 -3 -54 -60 -119 -126 -66 -67 -161 -166 -213
-220 l-93 -98 -85 64 c-193 144 -406 254 -645 333 l-70 23 80 1 c44 1 134 3
200 4 66 2 257 7 425 11 168 4 306 8 307 8 5 5 213 5 213 0z m-1845 -541 l0
-490 -70 -7 c-160 -15 -292 -49 -412 -105 -65 -30 -89 -37 -103 -30 -10 5 -20
13 -22 17 -1 5 -46 46 -98 93 -52 47 -104 94 -115 105 -12 11 -63 58 -115 105
-52 47 -101 91 -108 97 -7 7 -72 65 -143 130 l-130 117 23 18 c13 10 37 18 53
19 17 1 50 3 75 4 25 1 117 6 205 9 88 4 194 9 235 11 41 2 136 7 210 10 266
11 354 16 358 20 3 3 -39 50 -210 229 -42 45 -74 84 -70 88 7 7 37 14 107 25
97 14 146 19 235 21 l95 3 0 -489z m290 472 c22 -2 54 -7 70 -11 17 -3 39 -7
50 -8 55 -7 267 -69 367 -108 120 -47 290 -132 373 -187 84 -56 185 -131 185
-139 0 -4 -39 -48 -87 -98 -195 -203 -540 -558 -567 -584 l-30 -28 -40 25
c-114 71 -237 119 -381 148 l-110 22 0 493 0 493 65 -7 c36 -3 83 -8 105 -11z
m1940 -425 c2 -63 7 -170 10 -239 12 -295 22 -528 26 -647 1 -40 5 -73 9 -73
12 0 533 315 555 336 19 18 20 31 19 237 -1 246 -5 241 70 82 119 -252 221
-568 260 -805 43 -261 67 -602 44 -616 -5 -3 -84 -5 -176 -4 -330 3 -787 8
-794 9 -3 1 -7 36 -7 79 -1 95 -18 266 -35 352 -61 315 -171 587 -343 844
l-73 110 37 40 c21 22 52 54 68 72 63 67 232 249 274 296 24 26 46 47 48 44 2
-2 6 -55 8 -117z m-3815 -307 c0 -4 10 -18 23 -32 21 -23 76 -88 243 -286 32
-39 120 -142 194 -229 74 -88 143 -169 153 -182 17 -21 17 -23 -7 -62 -95
-150 -159 -369 -165 -559 l-1 -33 -487 4 c-269 3 -490 5 -492 6 -8 2 9 240 24
326 24 142 58 275 69 275 6 0 32 -19 57 -43 54 -49 173 -156 209 -187 14 -12
54 -48 90 -80 36 -32 77 -68 91 -79 l27 -21 -3 33 c-2 17 -6 131 -10 252 -4
121 -8 254 -10 295 -6 162 -17 459 -20 533 -2 42 1 77 6 77 5 0 9 -3 9 -8z
m3382 -227 c120 -185 214 -399 268 -608 49 -189 77 -410 71 -560 -1 -17 -23
-18 -486 -15 -266 2 -486 6 -489 9 -2 2 -7 38 -10 79 -10 150 -43 287 -96 406
l-28 62 41 45 c95 102 257 276 323 347 39 41 84 89 99 105 15 17 72 78 127
137 l100 108 18 -23 c9 -12 38 -53 62 -92z m-1801 -128 c4 -44 3 -537 -1 -537
-5 0 -66 54 -269 239 -204 185 -203 184 -189 197 33 31 216 88 324 102 103 13
134 12 135 -1z m234 -12 c85 -16 269 -92 322 -133 21 -17 20 -18 -197 -242
-120 -123 -222 -221 -227 -216 -4 4 -8 143 -8 308 l0 300 40 -6 c22 -3 54 -8
70 -11z m-984 -622 c68 -81 142 -168 164 -193 105 -123 155 -186 155 -198 0
-8 -78 -10 -282 -8 -156 3 -291 5 -302 5 -17 1 -18 7 -12 74 15 166 48 280
124 425 12 23 24 42 26 42 2 0 59 -66 127 -147z m1733 -35 c34 -92 53 -180 61
-290 l7 -88 -29 0 c-24 -1 -153 0 -425 2 -38 1 -68 4 -68 7 0 4 8 14 18 22 9
9 44 45 77 80 33 36 112 120 175 188 63 68 119 129 123 137 17 29 36 12 61
-58z m-3217 -472 c2 -1 5 -29 8 -62 28 -311 101 -568 237 -836 80 -159 220
-369 303 -454 59 -62 95 -103 95 -109 0 -4 -58 -104 -129 -223 -70 -119 -133
-227 -140 -239 -11 -22 1 -43 224 -388 174 -268 325 -509 321 -512 -13 -13
-320 156 -486 267 -270 182 -565 462 -771 735 -54 72 -189 272 -189 281 0 3
-9 18 -20 34 -32 44 -164 317 -205 420 -85 218 -144 423 -180 625 -2 17 -7 41
-10 55 -3 14 -8 50 -11 80 -3 30 -7 62 -9 70 -6 25 -20 231 -16 255 1 7 169 9
488 7 269 -2 489 -5 490 -6z m886 -6 c205 -2 217 -3 217 -21 0 -23 -1 -15 16
-91 39 -168 100 -308 191 -437 68 -95 195 -218 296 -285 66 -44 86 -62 82 -75
-5 -16 -81 -307 -89 -341 -7 -27 -107 -413 -132 -504 -13 -49 -26 -91 -28 -94
-19 -19 -328 153 -479 267 -103 77 -237 201 -237 219 0 7 -7 12 -15 12 -27 0
-229 259 -308 395 -122 212 -230 513 -262 735 -3 19 -7 49 -10 65 -3 17 -7 60
-10 96 l-5 65 277 -2 c153 -1 376 -3 496 -4z m848 -9 l86 -1 31 -61 c18 -34
32 -67 32 -74 0 -6 -36 -150 -80 -319 -44 -169 -80 -309 -80 -312 0 -3 -33 18
-74 46 -81 56 -184 156 -245 239 -86 115 -165 304 -186 442 l-7 45 219 -2
c120 -1 257 -3 304 -3z m1302 -11 c130 -1 237 -5 237 -9 0 -33 -58 -220 -89
-285 -148 -317 -460 -552 -787 -593 l-41 -5 3 99 c2 93 7 110 88 352 73 216
91 260 120 290 19 20 47 61 62 91 15 30 31 57 35 60 4 3 36 4 71 3 34 -1 170
-2 301 -3z m1323 -15 c6 -2 10 -16 8 -32 -1 -15 -6 -55 -9 -88 -4 -33 -10 -76
-15 -95 -5 -19 -11 -51 -14 -70 -19 -128 -122 -410 -209 -570 -37 -69 -143
-238 -156 -250 -4 -3 -19 -23 -36 -45 -59 -79 -220 -248 -305 -320 -345 -292
-828 -488 -1230 -499 l-35 -1 0 489 0 490 90 18 c241 47 437 150 605 318 161
161 266 355 315 585 l18 81 481 -3 c264 -2 486 -6 492 -8z m837 -5 l269 -3 -7
-96 c-5 -82 -15 -164 -41 -321 -11 -70 -65 -287 -95 -385 -279 -903 -973
-1658 -1858 -2020 -262 -107 -542 -182 -786 -210 -33 -4 -63 -9 -66 -11 -4 -2
-171 -14 -229 -16 -23 -1 -25 12 -25 129 l0 126 75 32 c41 17 139 57 217 89
106 44 141 63 138 75 -3 19 -13 89 -20 151 -3 25 -7 56 -10 70 -2 14 -7 48
-10 75 -3 28 -7 61 -10 75 -2 14 -7 45 -9 70 -3 25 -8 66 -11 92 -5 46 -5 46
27 53 66 13 175 47 283 87 680 251 1210 842 1385 1543 38 151 38 151 51 265 6
52 12 104 14 115 5 23 -61 22 718 15z m-2958 -1521 l0 -451 -125 6 c-111 5
-170 12 -170 21 0 3 277 841 285 863 2 6 6 12 7 12 2 0 3 -203 3 -451z m-1060
-290 c55 -30 131 -67 168 -83 50 -21 66 -33 63 -45 -2 -9 -16 -63 -31 -121
-15 -58 -34 -132 -44 -165 l-17 -60 -34 55 c-20 30 -41 64 -47 75 -7 11 -31
51 -55 89 -24 39 -52 84 -63 102 -67 110 -161 263 -174 283 -13 20 0 14 59
-26 41 -27 120 -74 175 -104z m940 -265 c61 -4 112 -8 114 -10 2 -2 5 -23 6
-48 l2 -44 -86 -41 c-47 -22 -140 -65 -206 -95 -66 -31 -128 -60 -137 -66 -19
-11 -21 -19 42 170 23 69 43 131 46 139 3 10 17 12 57 7 28 -3 102 -9 162 -12z
m331 -2 c-13 -12 -85 -40 -90 -34 -11 11 -6 23 14 30 23 9 83 12 76 4z m-210
-878 c0 -49 -2 -94 -4 -100 -5 -16 -242 -7 -390 15 l-47 6 125 52 c69 29 163
68 210 87 47 19 90 34 95 32 6 -1 10 -41 11 -92z"/>
</g>
</svg>
